<svg xmlns="http://www.w3.org/2000/svg" width="736" height="682"><polygon points="40.665,104.387 76.699,104.387 76.699,24.314 52.318,24.314 52.318,70.23 52.11,70.23 36.033,24.314 0,24.314 0,104.387 24.367,104.387 24.367,58.166 24.586,58.166 40.665,104.387" fill="#7b7692"/><polygon points="176.612,104.387 212.648,104.387 212.648,24.314 188.279,24.314 188.279,70.23 188.06,70.23 171.984,24.314 135.951,24.314 135.951,104.387 160.328,104.387 160.328,58.166 160.54,58.166 176.612,104.387" fill="#7b7692"/><polygon points="410.703,104.387 446.744,104.387 446.744,24.314 422.369,24.314 422.369,70.23 422.151,70.23 406.077,24.314 370.041,24.314 370.041,104.387 394.411,104.387 394.411,58.166 394.627,58.166 410.703,104.387" fill="#7b7692"/><polygon points="91.421,24.314 121.476,24.314 121.476,104.387 91.421,104.387 91.421,24.314" fill="#7b7692"/><polygon points="240.464,46.066 221.365,46.066 221.365,24.314 289.677,24.314 289.677,46.066 270.511,46.066 270.511,104.387 240.464,104.387 240.464,46.066" fill="#7b7692"/><polygon points="298.552,24.293 357.995,24.293 357.995,45.47 328.135,45.47 328.135,53.845 355.628,53.845 355.628,74.373 328.135,74.373 328.135,83.359 358.945,83.359 358.945,104.364 298.552,104.364 298.552,24.293" fill="#7b7692"/><polygon points="348.859,190.552 285.138,304.273 348.859,279.855 409.681,303.144 425.969,284.864 425.969,160.65 348.859,190.552" fill="#0222a9"/><polygon points="546.82,599.126 431.729,448.924 431.729,647.514 348.859,682.567 348.859,343.34 431.729,311.605 546.82,476.102 546.82,266.959 625.082,236.777 625.082,566.257 546.82,599.126" fill="#011da9"/><polygon points="150.899,599.126 224.326,566.618 150.899,424.061 150.899,599.126" fill="#0222a9"/><polygon points="229.163,236.777 265.997,311.596 285.138,304.273 348.859,190.552 271.745,160.563 229.163,236.777" fill="#069330"/><polygon points="409.681,303.144 468.582,236.777 546.82,266.959 546.82,476.102 431.729,311.605 409.681,303.144" fill="#069330"/><polygon points="150.899,266.959 72.638,236.777 72.638,566.257 150.899,599.126 150.899,424.061 265.997,647.514 348.859,682.567 348.859,343.34 265.997,311.596 265.997,483.808 150.899,266.959" fill="#069330"/><polygon points="265.997,311.596 265.997,483.808 150.899,266.959 229.163,236.777 265.997,311.596" fill="#fe2015"/><polygon points="546.82,599.126 431.729,448.924 431.729,530.988 455.231,563.957 546.82,599.126" fill="#fe2015"/><polygon points="431.729,311.596 348.859,343.34 265.997,311.596 348.859,279.855 431.729,311.596" fill="#ffc001"/><polygon points="468.551,236.777 546.82,206.669 625.082,236.777 546.82,266.959 468.551,236.777" fill="#ffc001"/><polygon points="72.638,236.777 150.899,206.669 229.163,236.777 150.899,266.959 72.638,236.777" fill="#ffc001"/><polygon points="425.969,160.65 348.859,130.871 271.745,160.563 348.859,190.552 425.969,160.65" fill="#ffc001"/><path d="M459.7,24.3L495.3,24.3C525.7,24.3 535.3,41.5 535.3,65.2C535.3,89.4 520.4,104.4 497.1,104.4L459.7,104.4L459.7,24.3L459.7,24.3z M489.1,86.2L492,86.2C496.9,86.2 500.1,84.7 502,81.5C504,78.2 504.2,72.1 504.2,64.3C504.2,56.6 504,50.5 502,47.2C500.1,44 496.9,42.5 492,42.5L489.1,42.5L489.1,86.2L489.1,86.2z" fill="#0124a6"/><path d="M582.4,22.2C608.6,22.2 621.6,39.4 621.6,64.3C621.6,89.3 608.6,106.5 582.4,106.5C556.3,106.5 543.2,89.3 543.2,64.3C543.2,39.4 556.3,22.2 582.4,22.2L582.4,22.2z M582.4,86.2C587.1,86.2 590.5,83.9 590.5,64.3C590.5,45.2 587.3,42.5 582.4,42.5C577.6,42.5 574.3,45.2 574.3,64.3C574.3,83.9 577.8,86.2 582.4,86.2L582.4,86.2z" fill="#0124a6"/><path d="M635.7,87.5C630.4,87.5 626.2,91.7 626.2,97C626.2,102.2 630.4,106.5 635.7,106.5C640.9,106.5 645.2,102.2 645.2,97C645.2,91.7 640.9,87.5 635.7,87.5L635.7,87.5z M635.7,104.8C631.3,104.8 627.8,101.3 627.8,97C627.8,92.7 631.3,89.2 635.7,89.2C640,89.2 643.5,92.7 643.5,97C643.5,101.3 640,104.8 635.7,104.8L635.7,104.8z" fill="#0124a6"/><path d="M634.1,102.2L631.9,102.2L631.9,91.8L636.3,91.8C638.1,91.8 640,92.4 640,94.5C640,95.8 639.1,96.7 637.8,97L637.8,97C639.5,97.2 639.5,98.3 639.7,99.7C639.8,100.4 639.9,101.6 640.3,102.2L637.8,102.2C637.6,101.3 637.5,100.3 637.4,99.4C637.4,98.8 637.2,98 636.5,98L634.1,98L634.1,102.2L634.1,102.2z M634.1,96.3L636,96.3C637,96.3 637.6,95.8 637.6,94.8C637.6,93.9 637,93.5 636,93.5L634.1,93.5L634.1,96.3L634.1,96.3z" fill="#0124a6"/><polygon points="40.665,104.387 76.699,104.387 76.699,24.314 52.318,24.314 52.318,70.23 52.11,70.23 36.033,24.314 0,24.314 0,104.387 24.367,104.387 24.367,58.166 24.586,58.166 40.665,104.387" fill="#0124a6"/><polygon points="176.612,104.387 212.648,104.387 212.648,24.314 188.279,24.314 188.279,70.23 188.06,70.23 171.984,24.314 135.951,24.314 135.951,104.387 160.328,104.387 160.328,58.166 160.54,58.166 176.612,104.387" fill="#0124a6"/><polygon points="410.703,104.387 446.744,104.387 446.744,24.314 422.369,24.314 422.369,70.23 422.151,70.23 406.077,24.314 370.041,24.314 370.041,104.387 394.411,104.387 394.411,58.166 394.627,58.166 410.703,104.387" fill="#0124a6"/><polygon points="91.421,24.314 121.476,24.314 121.476,104.387 91.421,104.387 91.421,24.314" fill="#0124a6"/><polygon points="240.464,46.066 221.365,46.066 221.365,24.314 289.677,24.314 289.677,46.066 270.511,46.066 270.511,104.387 240.464,104.387 240.464,46.066" fill="#0124a6"/><polygon points="298.552,24.293 357.995,24.293 357.995,45.47 328.135,45.47 328.135,53.845 355.628,53.845 355.628,74.373 328.135,74.373 328.135,83.359 358.945,83.359 358.945,104.364 298.552,104.364 298.552,24.293" fill="#0124a6"/><path d="M675.4,13.7C673.8,13.5 672.2,13.6 670.1,13.7C657.4,14.3 652.3,19.7 650.5,25.8L650.8,25.8C654,23 657.9,21.7 663.1,21.7C673.2,21.7 682.3,29 682.3,42.8C682.3,55.9 672.3,66.1 658.7,66.1C640.9,66.1 633.1,52.5 633.1,37.9C633.1,26 637.3,16 644.2,9.5C650.8,3.4 659.3,0.3 669.7,0.1C672.4,-0.1 674.1,0.1 675.4,0.2L675.4,13.7L675.4,13.7z M658.5,53.2C662.6,53.2 665.1,49 665.1,43.6C665.1,39.1 663,34.2 657.5,34.2C654.1,34.2 651.5,36.3 650.5,38.9C650.1,39.7 650,40.8 650,42.7C650.3,47.8 652.8,53.2 658.4,53.2L658.5,53.2L658.5,53.2z" fill="#ff2d1e"/><path d="M713.8,65L713.8,50.7L687.1,50.7L687.1,39.2L708.5,1L729.9,1L729.9,37.5L736.7,37.5L736.7,50.7L729.9,50.7L729.9,65L713.8,65L713.8,65z M713.8,37.5L713.8,26.5C713.8,22.4 714,18.2 714.2,13.7L713.9,13.7C711.9,18.1 710.2,22.2 707.9,26.6L702.7,37.3L702.6,37.5L713.8,37.5L713.8,37.5z" fill="#ff2d1e"/></svg>